<?xml version="1.0" encoding="iso-8859-1"?>
<!-- Uploaded to: SVG Repo, www.svgrepo.com, Generator: SVG Repo Mixer Tools -->
<svg fill="#000000" height="800px" width="800px" version="1.1" id="Capa_1" xmlns="http://www.w3.org/2000/svg" xmlns:xlink="http://www.w3.org/1999/xlink" 
	 viewBox="0 0 60 60" xml:space="preserve">
<g>
	<path d="M30,11c0.552,0,1-0.448,1-1V4c0-0.552-0.448-1-1-1s-1,0.448-1,1v6C29,10.552,29.448,11,30,11z"/>
	<path d="M52,33c0,0.552,0.448,1,1,1h6c0.552,0,1-0.448,1-1s-0.448-1-1-1h-6C52.448,32,52,32.448,52,33z"/>
	<path d="M1,34h6c0.552,0,1-0.448,1-1s-0.448-1-1-1H1c-0.552,0-1,0.448-1,1S0.448,34,1,34z"/>
	<path d="M46.264,17.736c0.256,0,0.512-0.098,0.707-0.293l5.736-5.736c0.391-0.391,0.391-1.023,0-1.414s-1.023-0.391-1.414,0
		l-5.736,5.736c-0.391,0.391-0.391,1.023,0,1.414C45.752,17.639,46.008,17.736,46.264,17.736z"/>
	<path d="M13.029,17.443c0.195,0.195,0.451,0.293,0.707,0.293s0.512-0.098,0.707-0.293c0.391-0.391,0.391-1.023,0-1.414
		l-5.736-5.736c-0.391-0.391-1.023-0.391-1.414,0s-0.391,1.023,0,1.414L13.029,17.443z"/>
	<path d="M50.251,24.404c0.162,0.381,0.532,0.61,0.921,0.61c0.13,0,0.263-0.026,0.39-0.08l2.762-1.172
		c0.508-0.216,0.746-0.803,0.53-1.311s-0.804-0.746-1.311-0.53l-2.762,1.172C50.272,23.309,50.035,23.896,50.251,24.404z"/>
	<path d="M5.519,24.188L8.3,25.312c0.123,0.049,0.25,0.073,0.374,0.073c0.396,0,0.771-0.236,0.928-0.626
		c0.207-0.512-0.041-1.095-0.553-1.302l-2.782-1.124c-0.512-0.207-1.095,0.04-1.302,0.553C4.759,23.397,5.006,23.98,5.519,24.188z"
		/>
	<path d="M20.093,12.219c0.162,0.381,0.532,0.61,0.921,0.61c0.13,0,0.263-0.026,0.39-0.08c0.508-0.216,0.746-0.803,0.53-1.311
		l-1.172-2.762c-0.216-0.509-0.804-0.747-1.311-0.53c-0.508,0.216-0.746,0.803-0.53,1.311L20.093,12.219z"/>
	<path d="M38.241,12.602c0.123,0.049,0.25,0.073,0.374,0.073c0.396,0,0.771-0.236,0.928-0.626l1.124-2.782
		c0.207-0.512-0.041-1.095-0.553-1.302c-0.511-0.207-1.095,0.041-1.302,0.553L37.688,11.3
		C37.481,11.812,37.729,12.395,38.241,12.602z"/>
	<path d="M59,40h-9.23c0.802-2.252,1.23-4.596,1.23-7c0-11.58-9.42-21-21-21S9,21.42,9,33c0,2.404,0.428,4.748,1.23,7H1
		c-0.552,0-1,0.448-1,1s0.448,1,1,1h10.021h5.755h26.448h5.755H59c0.552,0,1-0.448,1-1S59.552,40,59,40z M17.89,40
		C16.652,37.866,16,35.458,16,33c0-7.72,6.28-14,14-14s14,6.28,14,14c0,2.458-0.652,4.866-1.89,7H17.89z M44.365,40
		C45.433,37.819,46,35.433,46,33c0-8.822-7.178-16-16-16s-16,7.178-16,16c0,2.433,0.567,4.819,1.635,7h-3.293
		C11.451,37.763,11,35.411,11,33c0-10.477,8.523-19,19-19s19,8.523,19,19c0,2.411-0.451,4.763-1.341,7H44.365z"/>
	<path d="M54,45H6c-0.552,0-1,0.448-1,1s0.448,1,1,1h48c0.552,0,1-0.448,1-1S54.552,45,54,45z"/>
	<path d="M49,50H11c-0.552,0-1,0.448-1,1s0.448,1,1,1h38c0.552,0,1-0.448,1-1S49.552,50,49,50z"/>
	<path d="M45,55H15c-0.552,0-1,0.448-1,1s0.448,1,1,1h30c0.552,0,1-0.448,1-1S45.552,55,45,55z"/>
</g>
</svg>